{"title":"step Up 3D TS XViD - IMAGINE","uid":5764530,"size":1484869461,"categoryP":"video","categoryS":"movies","magnet":"?xt=urn:btih:712447f182f72cb901d48df821557ba29508e7bf&amp;dn=step+Up+3D+TS+XViD+-+IMAGINE&amp;tr=udp%3A%2F%2Ftracker.openbittorrent.com%3A80&amp;tr=udp%3A%2F%2Fopen.demonii.com%3A1337&amp;tr=udp%3A%2F%2Ftracker.coppersurfer.tk%3A6969&amp;tr=udp%3A%2F%2Fexodus.desync.com%3A6969","seeders":0,"leechers":0,"uploader":".BONE.","files":102,"time":1281843488,"description":"Step Up 3D TS XViD - IMAGiNE\n********************************************************************************************************************\n\nRipper ...........: IMAGiNE IMDB Rating.......:4.0/10\nVideo Codec.......: XVID Release Date......:14/08/10\nAudio Codec.......:MP3 Theatre Date......:06/08/10\nAudio Bitrate.....:128 Runtime.......:1h 38mn\nSubtitles.........:NIL Language..........:ENGLISH\nResolution...... 656 x 368 IMDb URL..........:http://www.imdb.com/title/tt1193631/\n\n\nDETAILS:\n\n\nVideo\nFormat : MPEG-4 Visual\nFormat profile : Streaming Video@L1\nFormat settings, BVOP : Yes\nFormat settings, QPel : No\nFormat settings, GMC : No warppoints\nFormat settings, Matrix : Default\nMuxing mode : Packed bitstream\nCodec ID : XVID\nCodec ID/Hint : XviD\nDuration : 1h 38mn\nBit rate : 1 855 Kbps\nWidth : 656 pixels\nHeight : 368 pixels\nDisplay aspect ratio : 16/9\nFrame rate : 25.000 fps\nResolution : 24 bits\nColorimetry : 4:2:0\nScan type : Progressive\nBits/(Pixel*Frame) : 0.307\nStream size : 1.28 GiB (93%)\nWriting library : XviD 50\n\nAudio\nFormat : MPEG Audio\nFormat version : Version 1\nFormat profile : Layer 3\nCodec ID : 55\nCodec ID/Hint : MP3\nDuration : 1h 38mn\nBit rate mode : Constant\nBit rate : 128 Kbps\nChannel(s) : 2 channels\nSampling rate : 48.0 KHz\nResolution : 16 bits\nStream size : 90.4 MiB (6%)\nAlignment : Split accross interleaves\nInterleave, duration : 40 ms (1.00 video frame)\nInterleave, preload duration : 500 ms\n\n\n\nNOTES:\n\n\nIMAGiNE bringing you another release.....Step Up 3\n\nRight,first thanks to boobies for the audio,synced by Lu ....nice work guys.The video is the russian video\noff UG,so thanks to them aswell.\nThis was just a quick clean up job and then muxed with boobies already synced audio.\nThe source video was dark and colours were off.....so made a light script to change the brightness,contrast,white balance,\nrgb colours with some added sharpness\nVideo source itself was also cropped and as camera movement.....and also in some scenes top of some peoples heads are missing and\nthere is a fair amount cropped off the right.\nOh also,even though the name is 3D it is actually in 2D......before ya ask\nAnyway enjoy","torrent":{"xt":"urn:btih:712447f182f72cb901d48df821557ba29508e7bf","amp;dn":"step+Up+3D+TS+XViD+-+IMAGINE","amp;tr":["udp%3A%2F%2Ftracker.openbittorrent.com%3A80","udp%3A%2F%2Fopen.demonii.com%3A1337","udp%3A%2F%2Ftracker.coppersurfer.tk%3A6969","udp%3A%2F%2Fexodus.desync.com%3A6969"],"infoHash":"712447f182f72cb901d48df821557ba29508e7bf","infoHashBuffer":{"type":"Buffer","data":[113,36,71,241,130,247,44,185,1,212,141,248,33,85,123,162,149,8,231,191]},"announce":[],"urlList":[]}}